<svg width="183" height="32" viewBox="0 0 183 32" fill="none" xmlns="http://www.w3.org/2000/svg">
<path d="M15.7147 0.87909C15.8045 0.602697 16.1955 0.602699 16.2853 0.879092L19.5249 10.8494C19.565 10.973 19.6802 11.0567 19.8102 11.0567H30.2936C30.5842 11.0567 30.705 11.4286 30.4699 11.5994L21.9887 17.7614C21.8835 17.8378 21.8395 17.9732 21.8797 18.0968L25.1192 28.0671C25.2091 28.3435 24.8927 28.5734 24.6576 28.4025L16.1763 22.2405C16.0712 22.1642 15.9288 22.1642 15.8237 22.2405L7.34241 28.4025C7.10729 28.5734 6.79095 28.3435 6.88075 28.0671L10.1203 18.0968C10.1605 17.9732 10.1165 17.8378 10.0113 17.7614L1.53006 11.5994C1.29495 11.4286 1.41578 11.0567 1.7064 11.0567H12.1898C12.3198 11.0567 12.435 10.973 12.4751 10.8494L15.7147 0.87909Z" fill="#560A20"/>
<path d="M53.4647 0.87909C53.5545 0.602697 53.9455 0.602699 54.0353 0.879092L57.2749 10.8494C57.315 10.973 57.4302 11.0567 57.5602 11.0567H68.0436C68.3342 11.0567 68.455 11.4286 68.2199 11.5994L59.7387 17.7614C59.6335 17.8378 59.5895 17.9732 59.6297 18.0968L62.8692 28.0671C62.9591 28.3435 62.6427 28.5734 62.4076 28.4025L53.9263 22.2405C53.8212 22.1642 53.6788 22.1642 53.5737 22.2405L45.0924 28.4025C44.8573 28.5734 44.5409 28.3435 44.6308 28.0671L47.8703 18.0968C47.9105 17.9732 47.8665 17.8378 47.7613 17.7614L39.2801 11.5994C39.045 11.4286 39.1658 11.0567 39.4564 11.0567H49.9398C50.0698 11.0567 50.185 10.973 50.2251 10.8494L53.4647 0.87909Z" fill="#560A20"/>
<path d="M91.2147 0.87909C91.3045 0.602697 91.6955 0.602699 91.7853 0.879092L95.0249 10.8494C95.065 10.973 95.1802 11.0567 95.3102 11.0567H105.794C106.084 11.0567 106.205 11.4286 105.97 11.5994L97.4887 17.7614C97.3835 17.8378 97.3395 17.9732 97.3797 18.0968L100.619 28.0671C100.709 28.3435 100.393 28.5734 100.158 28.4025L91.6763 22.2405C91.5712 22.1642 91.4288 22.1642 91.3237 22.2405L82.8424 28.4025C82.6073 28.5734 82.2909 28.3435 82.3808 28.0671L85.6203 18.0968C85.6605 17.9732 85.6165 17.8378 85.5113 17.7614L77.0301 11.5994C76.795 11.4286 76.9158 11.0567 77.2064 11.0567H87.6898C87.8198 11.0567 87.935 10.973 87.9751 10.8494L91.2147 0.87909Z" fill="#560A20"/>
<path d="M128.965 0.87909C129.054 0.602697 129.446 0.602699 129.535 0.879092L132.775 10.8494C132.815 10.973 132.93 11.0567 133.06 11.0567H143.544C143.834 11.0567 143.955 11.4286 143.72 11.5994L135.239 17.7614C135.134 17.8378 135.09 17.9732 135.13 18.0968L138.369 28.0671C138.459 28.3435 138.143 28.5734 137.908 28.4025L129.426 22.2405C129.321 22.1642 129.179 22.1642 129.074 22.2405L120.592 28.4025C120.357 28.5734 120.041 28.3435 120.131 28.0671L123.37 18.0968C123.41 17.9732 123.366 17.8378 123.261 17.7614L114.78 11.5994C114.545 11.4286 114.666 11.0567 114.956 11.0567H125.44C125.57 11.0567 125.685 10.973 125.725 10.8494L128.965 0.87909Z" fill="#560A20"/>
<path d="M166.715 0.87909C166.804 0.602697 167.196 0.602699 167.285 0.879092L170.525 10.8494C170.565 10.973 170.68 11.0567 170.81 11.0567H181.294C181.584 11.0567 181.705 11.4286 181.47 11.5994L172.989 17.7614C172.884 17.8378 172.84 17.9732 172.88 18.0968L176.119 28.0671C176.209 28.3435 175.893 28.5734 175.658 28.4025L167.176 22.2405C167.071 22.1642 166.929 22.1642 166.824 22.2405L158.342 28.4025C158.107 28.5734 157.791 28.3435 157.881 28.0671L161.12 18.0968C161.16 17.9732 161.116 17.8378 161.011 17.7614L152.53 11.5994C152.295 11.4286 152.416 11.0567 152.706 11.0567H163.19C163.32 11.0567 163.435 10.973 163.475 10.8494L166.715 0.87909Z" fill="#560A20"/>
</svg>
