<svg width="481" height="239" viewBox="0 0 481 239" fill="none" xmlns="http://www.w3.org/2000/svg">
<path d="M31.36 112.32V140H27.72V119.36L18.52 140H15.96L6.72 119.32V140H3.08V112.32H7L17.24 135.2L27.48 112.32H31.36ZM58.1011 135.04H48.3731L46.5811 140H43.5091L51.5731 117.824H54.9331L62.9651 140H59.8931L58.1011 135.04ZM57.2691 132.672L53.2371 121.408L49.2051 132.672H57.2691ZM79.8236 117.696C82.2556 117.696 84.357 118.155 86.1276 119.072C87.9196 119.968 89.285 121.259 90.2236 122.944C91.1836 124.629 91.6636 126.613 91.6636 128.896C91.6636 131.179 91.1836 133.163 90.2236 134.848C89.285 136.512 87.9196 137.792 86.1276 138.688C84.357 139.563 82.2556 140 79.8236 140H72.8796V117.696H79.8236ZM79.8236 137.6C82.7036 137.6 84.901 136.843 86.4156 135.328C87.9303 133.792 88.6876 131.648 88.6876 128.896C88.6876 126.123 87.9196 123.957 86.3836 122.4C84.869 120.843 82.6823 120.064 79.8236 120.064H75.7916V137.6H79.8236ZM113.649 140L108.337 130.88H104.817V140H101.905V117.696H109.105C110.79 117.696 112.209 117.984 113.361 118.56C114.534 119.136 115.409 119.915 115.985 120.896C116.561 121.877 116.849 122.997 116.849 124.256C116.849 125.792 116.401 127.147 115.505 128.32C114.63 129.493 113.307 130.272 111.537 130.656L117.137 140H113.649ZM104.817 128.544H109.105C110.683 128.544 111.867 128.16 112.657 127.392C113.446 126.603 113.841 125.557 113.841 124.256C113.841 122.933 113.446 121.909 112.657 121.184C111.889 120.459 110.705 120.096 109.105 120.096H104.817V128.544ZM130.685 117.696V140H127.773V117.696H130.685ZM159.584 140H156.672L144.96 122.24V140H142.048V117.664H144.96L156.672 135.392V117.664H159.584V140ZM188.132 117.696V140H185.22V129.888H173.86V140H170.948V117.696H173.86V127.488H185.22V117.696H188.132ZM212.689 135.04H202.961L201.169 140H198.097L206.161 117.824H209.521L217.553 140H214.481L212.689 135.04ZM211.857 132.672L207.825 121.408L203.793 132.672H211.857ZM249.342 117.696C251.774 117.696 253.876 118.155 255.646 119.072C257.438 119.968 258.804 121.259 259.742 122.944C260.702 124.629 261.182 126.613 261.182 128.896C261.182 131.179 260.702 133.163 259.742 134.848C258.804 136.512 257.438 137.792 255.646 138.688C253.876 139.563 251.774 140 249.342 140H242.398V117.696H249.342ZM249.342 137.6C252.222 137.6 254.42 136.843 255.934 135.328C257.449 133.792 258.206 131.648 258.206 128.896C258.206 126.123 257.438 123.957 255.902 122.4C254.388 120.843 252.201 120.064 249.342 120.064H245.31V137.6H249.342ZM284.607 135.04H274.879L273.087 140H270.015L278.079 117.824H281.439L289.471 140H286.399L284.607 135.04ZM283.775 132.672L279.743 121.408L275.711 132.672H283.775ZM306.458 140.224C304.986 140.224 303.663 139.968 302.49 139.456C301.338 138.923 300.431 138.197 299.77 137.28C299.109 136.341 298.767 135.264 298.746 134.048H301.85C301.957 135.093 302.383 135.979 303.13 136.704C303.898 137.408 305.007 137.76 306.458 137.76C307.845 137.76 308.933 137.419 309.722 136.736C310.533 136.032 310.938 135.136 310.938 134.048C310.938 133.195 310.703 132.501 310.234 131.968C309.765 131.435 309.178 131.029 308.474 130.752C307.77 130.475 306.821 130.176 305.626 129.856C304.154 129.472 302.97 129.088 302.074 128.704C301.199 128.32 300.442 127.723 299.802 126.912C299.183 126.08 298.874 124.971 298.874 123.584C298.874 122.368 299.183 121.291 299.802 120.352C300.421 119.413 301.285 118.688 302.394 118.176C303.525 117.664 304.815 117.408 306.266 117.408C308.357 117.408 310.063 117.931 311.386 118.976C312.73 120.021 313.487 121.408 313.658 123.136H310.458C310.351 122.283 309.903 121.536 309.114 120.896C308.325 120.235 307.279 119.904 305.978 119.904C304.762 119.904 303.77 120.224 303.002 120.864C302.234 121.483 301.85 122.357 301.85 123.488C301.85 124.299 302.074 124.96 302.522 125.472C302.991 125.984 303.557 126.379 304.218 126.656C304.901 126.912 305.85 127.211 307.066 127.552C308.538 127.957 309.722 128.363 310.618 128.768C311.514 129.152 312.282 129.76 312.922 130.592C313.562 131.403 313.882 132.512 313.882 133.92C313.882 135.008 313.594 136.032 313.018 136.992C312.442 137.952 311.589 138.731 310.458 139.328C309.327 139.925 307.994 140.224 306.458 140.224ZM343.754 137.04H353.514V140H340.114V112.12H343.754V137.04ZM374.876 140.224C372.807 140.224 370.919 139.744 369.212 138.784C367.505 137.803 366.151 136.448 365.148 134.72C364.167 132.971 363.676 131.008 363.676 128.832C363.676 126.656 364.167 124.704 365.148 122.976C366.151 121.227 367.505 119.872 369.212 118.912C370.919 117.931 372.807 117.44 374.876 117.44C376.967 117.44 378.865 117.931 380.572 118.912C382.279 119.872 383.623 121.216 384.604 122.944C385.585 124.672 386.076 126.635 386.076 128.832C386.076 131.029 385.585 132.992 384.604 134.72C383.623 136.448 382.279 137.803 380.572 138.784C378.865 139.744 376.967 140.224 374.876 140.224ZM374.876 137.696C376.433 137.696 377.831 137.333 379.068 136.608C380.327 135.883 381.308 134.848 382.012 133.504C382.737 132.16 383.1 130.603 383.1 128.832C383.1 127.04 382.737 125.483 382.012 124.16C381.308 122.816 380.337 121.781 379.1 121.056C377.863 120.331 376.455 119.968 374.876 119.968C373.297 119.968 371.889 120.331 370.652 121.056C369.415 121.781 368.433 122.816 367.708 124.16C367.004 125.483 366.652 127.04 366.652 128.832C366.652 130.603 367.004 132.16 367.708 133.504C368.433 134.848 369.415 135.883 370.652 136.608C371.911 137.333 373.319 137.696 374.876 137.696ZM399.232 117.696V140H396.32V117.696H399.232ZM422.339 140L417.027 130.88H413.507V140H410.595V117.696H417.795C419.481 117.696 420.899 117.984 422.051 118.56C423.225 119.136 424.099 119.915 424.675 120.896C425.251 121.877 425.539 122.997 425.539 124.256C425.539 125.792 425.091 127.147 424.195 128.32C423.321 129.493 421.998 130.272 420.227 130.656L425.827 140H422.339ZM413.507 128.544H417.795C419.374 128.544 420.558 128.16 421.347 127.392C422.137 126.603 422.531 125.557 422.531 124.256C422.531 122.933 422.137 121.909 421.347 121.184C420.579 120.459 419.395 120.096 417.795 120.096H413.507V128.544ZM449.648 135.04H439.92L438.128 140H435.056L443.12 117.824H446.48L454.512 140H451.44L449.648 135.04ZM448.816 132.672L444.784 121.408L440.752 132.672H448.816ZM471.498 140.224C470.026 140.224 468.704 139.968 467.53 139.456C466.378 138.923 465.472 138.197 464.81 137.28C464.149 136.341 463.808 135.264 463.786 134.048H466.89C466.997 135.093 467.424 135.979 468.17 136.704C468.938 137.408 470.048 137.76 471.498 137.76C472.885 137.76 473.973 137.419 474.762 136.736C475.573 136.032 475.978 135.136 475.978 134.048C475.978 133.195 475.744 132.501 475.274 131.968C474.805 131.435 474.218 131.029 473.514 130.752C472.81 130.475 471.861 130.176 470.666 129.856C469.194 129.472 468.01 129.088 467.114 128.704C466.24 128.32 465.482 127.723 464.842 126.912C464.224 126.08 463.914 124.971 463.914 123.584C463.914 122.368 464.224 121.291 464.842 120.352C465.461 119.413 466.325 118.688 467.434 118.176C468.565 117.664 469.856 117.408 471.306 117.408C473.397 117.408 475.104 117.931 476.426 118.976C477.77 120.021 478.528 121.408 478.698 123.136H475.498C475.392 122.283 474.944 121.536 474.154 120.896C473.365 120.235 472.32 119.904 471.018 119.904C469.802 119.904 468.81 120.224 468.042 120.864C467.274 121.483 466.89 122.357 466.89 123.488C466.89 124.299 467.114 124.96 467.562 125.472C468.032 125.984 468.597 126.379 469.258 126.656C469.941 126.912 470.89 127.211 472.106 127.552C473.578 127.957 474.762 128.363 475.658 128.768C476.554 129.152 477.322 129.76 477.962 130.592C478.602 131.403 478.922 132.512 478.922 133.92C478.922 135.008 478.634 136.032 478.058 136.992C477.482 137.952 476.629 138.731 475.498 139.328C474.368 139.925 473.034 140.224 471.498 140.224Z" fill="white"/>
<path d="M66.175 167.4V174.725H73.175V175.675H66.175V183.05H73.925V184H65.05V166.45H73.925V167.4H66.175ZM88.4803 184.14C87.5736 184.14 86.7803 183.98 86.1003 183.66C85.4203 183.34 84.8869 182.907 84.5003 182.36C84.1269 181.813 83.9136 181.207 83.8603 180.54H84.8003C84.9069 181.273 85.2469 181.927 85.8203 182.5C86.4069 183.073 87.2936 183.36 88.4803 183.36C89.1736 183.36 89.7736 183.233 90.2803 182.98C90.8003 182.727 91.2003 182.38 91.4803 181.94C91.7603 181.5 91.9003 181.013 91.9003 180.48C91.9003 179.8 91.7336 179.26 91.4003 178.86C91.0803 178.46 90.6736 178.16 90.1803 177.96C89.7003 177.76 89.0469 177.547 88.2203 177.32C87.3136 177.08 86.5803 176.84 86.0203 176.6C85.4736 176.36 85.0069 175.993 84.6203 175.5C84.2469 174.993 84.0603 174.307 84.0603 173.44C84.0603 172.773 84.2336 172.167 84.5803 171.62C84.9403 171.06 85.4469 170.62 86.1003 170.3C86.7536 169.98 87.5069 169.82 88.3603 169.82C89.6003 169.82 90.6003 170.127 91.3603 170.74C92.1203 171.353 92.5736 172.107 92.7203 173H91.7603C91.6803 172.64 91.5003 172.273 91.2203 171.9C90.9536 171.527 90.5669 171.22 90.0603 170.98C89.5669 170.727 88.9736 170.6 88.2803 170.6C87.3469 170.6 86.5603 170.86 85.9203 171.38C85.2803 171.887 84.9603 172.567 84.9603 173.42C84.9603 174.1 85.1269 174.647 85.4603 175.06C85.7936 175.46 86.2003 175.767 86.6803 175.98C87.1736 176.18 87.8336 176.387 88.6603 176.6C89.5803 176.853 90.3069 177.1 90.8403 177.34C91.3869 177.567 91.8469 177.933 92.2203 178.44C92.6069 178.933 92.8003 179.607 92.8003 180.46C92.8003 181.087 92.6336 181.68 92.3003 182.24C91.9669 182.8 91.4736 183.26 90.8203 183.62C90.1803 183.967 89.4003 184.14 88.4803 184.14ZM109.994 173.92C109.994 175.16 109.608 176.127 108.834 176.82C108.061 177.5 106.914 177.84 105.394 177.84H102.394V184H101.494V169.96H105.394C106.941 169.96 108.094 170.32 108.854 171.04C109.614 171.747 109.994 172.707 109.994 173.92ZM105.394 177.04C107.861 177.04 109.094 176 109.094 173.92C109.094 172.893 108.801 172.113 108.214 171.58C107.628 171.033 106.688 170.76 105.394 170.76H102.394V177.04H105.394ZM119.312 170.72V176.58H124.912V177.34H119.312V183.24H125.512V184H118.412V169.96H125.512V170.72H119.312ZM133.677 177C133.677 175.613 133.963 174.38 134.537 173.3C135.123 172.207 135.923 171.353 136.937 170.74C137.963 170.127 139.11 169.82 140.377 169.82C141.977 169.82 143.323 170.193 144.417 170.94C145.51 171.687 146.31 172.733 146.817 174.08H145.777C145.377 173.013 144.71 172.173 143.777 171.56C142.857 170.933 141.723 170.62 140.377 170.62C139.297 170.62 138.317 170.88 137.437 171.4C136.557 171.907 135.863 172.647 135.357 173.62C134.85 174.58 134.597 175.707 134.597 177C134.597 178.28 134.85 179.4 135.357 180.36C135.863 181.307 136.557 182.04 137.437 182.56C138.317 183.08 139.297 183.34 140.377 183.34C141.723 183.34 142.857 183.033 143.777 182.42C144.71 181.793 145.377 180.947 145.777 179.88H146.817C146.31 181.227 145.51 182.273 144.417 183.02C143.323 183.767 141.977 184.14 140.377 184.14C139.11 184.14 137.963 183.84 136.937 183.24C135.923 182.627 135.123 181.78 134.537 180.7C133.963 179.607 133.677 178.373 133.677 177ZM156.527 169.96V184H155.627V169.96H156.527ZM173.787 180.4H167.127L165.787 184H164.807L169.967 170.28H170.967L176.107 184H175.127L173.787 180.4ZM173.507 179.64L170.467 171.46L167.407 179.64H173.507ZM185.266 183.24H190.486V184H184.366V169.96H185.266V183.24ZM199.43 169.96V184H198.53V169.96H199.43ZM212.789 184.14C211.882 184.14 211.089 183.98 210.409 183.66C209.729 183.34 209.196 182.907 208.809 182.36C208.436 181.813 208.222 181.207 208.169 180.54H209.109C209.216 181.273 209.556 181.927 210.129 182.5C210.716 183.073 211.602 183.36 212.789 183.36C213.482 183.36 214.082 183.233 214.589 182.98C215.109 182.727 215.509 182.38 215.789 181.94C216.069 181.5 216.209 181.013 216.209 180.48C216.209 179.8 216.042 179.26 215.709 178.86C215.389 178.46 214.982 178.16 214.489 177.96C214.009 177.76 213.356 177.547 212.529 177.32C211.622 177.08 210.889 176.84 210.329 176.6C209.782 176.36 209.316 175.993 208.929 175.5C208.556 174.993 208.369 174.307 208.369 173.44C208.369 172.773 208.542 172.167 208.889 171.62C209.249 171.06 209.756 170.62 210.409 170.3C211.062 169.98 211.816 169.82 212.669 169.82C213.909 169.82 214.909 170.127 215.669 170.74C216.429 171.353 216.882 172.107 217.029 173H216.069C215.989 172.64 215.809 172.273 215.529 171.9C215.262 171.527 214.876 171.22 214.369 170.98C213.876 170.727 213.282 170.6 212.589 170.6C211.656 170.6 210.869 170.86 210.229 171.38C209.589 171.887 209.269 172.567 209.269 173.42C209.269 174.1 209.436 174.647 209.769 175.06C210.102 175.46 210.509 175.767 210.989 175.98C211.482 176.18 212.142 176.387 212.969 176.6C213.889 176.853 214.616 177.1 215.149 177.34C215.696 177.567 216.156 177.933 216.529 178.44C216.916 178.933 217.109 179.607 217.109 180.46C217.109 181.087 216.942 181.68 216.609 182.24C216.276 182.8 215.782 183.26 215.129 183.62C214.489 183.967 213.709 184.14 212.789 184.14ZM233.563 169.96V170.72H229.563V184H228.663V170.72H224.663V169.96H233.563ZM249.665 180.4H243.005L241.665 184H240.685L245.845 170.28H246.845L251.985 184H251.005L249.665 180.4ZM249.385 179.64L246.345 171.46L243.285 179.64H249.385ZM272.789 170.72V176.58H278.389V177.34H272.789V183.24H278.989V184H271.889V169.96H278.989V170.72H272.789ZM300.813 170.26V184H299.913V172.14L294.633 184H293.913L288.613 172.14V184H287.713V170.26H288.673L294.273 182.82L299.873 170.26H300.813ZM323.299 183.05H329.824V184H322.174V166.45H323.299V183.05ZM345.729 184.16C344.436 184.16 343.269 183.86 342.229 183.26C341.189 182.647 340.376 181.793 339.789 180.7C339.202 179.607 338.909 178.373 338.909 177C338.909 175.613 339.202 174.38 339.789 173.3C340.376 172.207 341.189 171.36 342.229 170.76C343.269 170.147 344.436 169.84 345.729 169.84C347.022 169.84 348.189 170.147 349.229 170.76C350.269 171.36 351.082 172.207 351.669 173.3C352.256 174.38 352.549 175.613 352.549 177C352.549 178.373 352.256 179.607 351.669 180.7C351.082 181.793 350.269 182.647 349.229 183.26C348.189 183.86 347.022 184.16 345.729 184.16ZM345.729 183.36C346.836 183.36 347.836 183.1 348.729 182.58C349.622 182.06 350.322 181.32 350.829 180.36C351.349 179.4 351.609 178.28 351.609 177C351.609 175.707 351.349 174.58 350.829 173.62C350.322 172.66 349.622 171.92 348.729 171.4C347.836 170.88 346.836 170.62 345.729 170.62C344.622 170.62 343.622 170.88 342.729 171.4C341.836 171.92 341.129 172.66 340.609 173.62C340.089 174.58 339.829 175.707 339.829 177C339.829 178.28 340.089 179.4 340.609 180.36C341.129 181.32 341.836 182.06 342.729 182.58C343.622 183.1 344.622 183.36 345.729 183.36ZM362.17 169.96V184H361.27V169.96H362.17ZM379.049 184L375.449 178.02H375.369H372.369V184H371.469V169.96H375.329C376.889 169.96 378.056 170.327 378.829 171.06C379.616 171.793 380.009 172.767 380.009 173.98C380.009 175.06 379.702 175.953 379.089 176.66C378.489 177.353 377.609 177.78 376.449 177.94L380.129 184H379.049ZM372.369 177.26H375.369C376.609 177.26 377.536 176.96 378.149 176.36C378.762 175.76 379.069 174.967 379.069 173.98C379.069 171.833 377.822 170.76 375.329 170.76H372.369V177.26ZM396.64 180.4H389.98L388.64 184H387.66L392.82 170.28H393.82L398.96 184H397.98L396.64 180.4ZM396.36 179.64L393.32 171.46L390.26 179.64H396.36ZM411.279 184.14C410.372 184.14 409.579 183.98 408.899 183.66C408.219 183.34 407.686 182.907 407.299 182.36C406.926 181.813 406.712 181.207 406.659 180.54H407.599C407.706 181.273 408.046 181.927 408.619 182.5C409.206 183.073 410.092 183.36 411.279 183.36C411.972 183.36 412.572 183.233 413.079 182.98C413.599 182.727 413.999 182.38 414.279 181.94C414.559 181.5 414.699 181.013 414.699 180.48C414.699 179.8 414.532 179.26 414.199 178.86C413.879 178.46 413.472 178.16 412.979 177.96C412.499 177.76 411.846 177.547 411.019 177.32C410.112 177.08 409.379 176.84 408.819 176.6C408.272 176.36 407.806 175.993 407.419 175.5C407.046 174.993 406.859 174.307 406.859 173.44C406.859 172.773 407.032 172.167 407.379 171.62C407.739 171.06 408.246 170.62 408.899 170.3C409.552 169.98 410.306 169.82 411.159 169.82C412.399 169.82 413.399 170.127 414.159 170.74C414.919 171.353 415.372 172.107 415.519 173H414.559C414.479 172.64 414.299 172.273 414.019 171.9C413.752 171.527 413.366 171.22 412.859 170.98C412.366 170.727 411.772 170.6 411.079 170.6C410.146 170.6 409.359 170.86 408.719 171.38C408.079 171.887 407.759 172.567 407.759 173.42C407.759 174.1 407.926 174.647 408.259 175.06C408.592 175.46 408.999 175.767 409.479 175.98C409.972 176.18 410.632 176.387 411.459 176.6C412.379 176.853 413.106 177.1 413.639 177.34C414.186 177.567 414.646 177.933 415.019 178.44C415.406 178.933 415.599 179.607 415.599 180.46C415.599 181.087 415.432 181.68 415.099 182.24C414.766 182.8 414.272 183.26 413.619 183.62C412.979 183.967 412.199 184.14 411.279 184.14Z" fill="white"/>
<ellipse cx="240" cy="154" rx="151" ry="2" fill="white"/>
<path d="M126.52 195.4V223H123.72V200.96L113.88 223H111.84L102 201.04V223H99.2V195.4H102.16L112.84 219.32L123.52 195.4H126.52ZM144.472 200.632V223H142.232V200.632H144.472ZM159.784 221.176H167.816V223H157.544V200.632H159.784V221.176ZM181.253 221.176H189.285V223H179.013V200.632H181.253V221.176ZM213.442 217.688H203.266L201.314 223H198.946L207.106 200.92H209.634L217.762 223H215.394L213.442 217.688ZM212.77 215.832L208.354 203.736L203.938 215.832H212.77ZM259.858 208.56C261.431 208.853 262.765 209.653 263.858 210.96C264.951 212.267 265.498 213.787 265.498 215.52C265.498 216.933 265.138 218.213 264.418 219.36C263.725 220.48 262.698 221.373 261.338 222.04C259.978 222.68 258.351 223 256.458 223H246.778V195.04H256.178C259.005 195.04 261.151 195.693 262.618 197C264.111 198.307 264.858 200 264.858 202.08C264.858 203.813 264.391 205.227 263.458 206.32C262.525 207.387 261.325 208.133 259.858 208.56ZM249.578 207.4H256.098C257.991 207.4 259.445 206.96 260.458 206.08C261.498 205.173 262.018 203.933 262.018 202.36C262.018 200.813 261.498 199.6 260.458 198.72C259.445 197.84 257.951 197.4 255.978 197.4H249.578V207.4ZM256.258 220.64C258.285 220.64 259.858 220.16 260.978 219.2C262.125 218.24 262.698 216.92 262.698 215.24C262.698 213.56 262.098 212.227 260.898 211.24C259.725 210.227 258.138 209.72 256.138 209.72H249.578V220.64H256.258ZM282.245 221.176H290.277V223H280.005V200.632H282.245V221.176ZM311.522 223.224C309.453 223.224 307.575 222.744 305.89 221.784C304.205 220.803 302.871 219.448 301.89 217.72C300.93 215.971 300.45 213.997 300.45 211.8C300.45 209.603 300.93 207.64 301.89 205.912C302.871 204.163 304.205 202.808 305.89 201.848C307.575 200.867 309.453 200.376 311.522 200.376C313.613 200.376 315.501 200.867 317.186 201.848C318.871 202.808 320.194 204.163 321.154 205.912C322.114 207.64 322.594 209.603 322.594 211.8C322.594 213.997 322.114 215.971 321.154 217.72C320.194 219.448 318.871 220.803 317.186 221.784C315.501 222.744 313.613 223.224 311.522 223.224ZM311.522 221.272C313.186 221.272 314.679 220.888 316.002 220.12C317.325 219.352 318.37 218.253 319.138 216.824C319.906 215.373 320.29 213.699 320.29 211.8C320.29 209.901 319.906 208.237 319.138 206.808C318.37 205.379 317.325 204.28 316.002 203.512C314.679 202.744 313.186 202.36 311.522 202.36C309.858 202.36 308.365 202.744 307.042 203.512C305.719 204.28 304.674 205.379 303.906 206.808C303.138 208.237 302.754 209.901 302.754 211.8C302.754 213.699 303.138 215.373 303.906 216.824C304.674 218.253 305.719 219.352 307.042 220.12C308.365 220.888 309.858 221.272 311.522 221.272ZM351.557 223H349.317L336.933 204.184V223H334.693V200.632H336.933L349.317 219.416V200.632H351.557V223ZM371.254 200.632C373.729 200.632 375.852 201.08 377.622 201.976C379.393 202.872 380.748 204.163 381.686 205.848C382.625 207.533 383.094 209.539 383.094 211.864C383.094 214.168 382.625 216.163 381.686 217.848C380.748 219.512 379.393 220.792 377.622 221.688C375.852 222.563 373.729 223 371.254 223H364.63V200.632H371.254ZM371.254 221.144C374.369 221.144 376.737 220.333 378.358 218.712C380.001 217.069 380.822 214.787 380.822 211.864C380.822 208.92 380.001 206.627 378.358 204.984C376.737 203.32 374.369 202.488 371.254 202.488H366.87V221.144H371.254Z" fill="white"/>
<path d="M54 48L60.9599 69.4205H83.4827L65.2614 82.6591L72.2213 104.08L54 90.8409L35.7787 104.08L42.7386 82.6591L24.5172 69.4205H47.0401L54 48Z" fill="white"/>
<path d="M135.25 24L144.904 53.7123H176.145L150.871 72.0755L160.525 101.788L135.25 83.4245L109.975 101.788L119.629 72.0755L94.3546 53.7123H125.596L135.25 24Z" fill="white"/>
<path d="M240.5 0L252.848 38.0041H292.808L260.48 61.4919L272.828 99.4959L240.5 76.0081L208.172 99.4959L220.52 61.4919L188.192 38.0041H228.152L240.5 0Z" fill="white"/>
<path d="M345.75 24L355.404 53.7123H386.645L361.371 72.0755L371.025 101.788L345.75 83.4245L320.475 101.788L330.129 72.0755L304.855 53.7123H336.096L345.75 24Z" fill="white"/>
<path d="M427 48L433.96 69.4205H456.483L438.261 82.6591L445.221 104.08L427 90.8409L408.779 104.08L415.739 82.6591L397.517 69.4205H420.04L427 48Z" fill="white"/>
</svg>
