<svg width="312" height="203" viewBox="0 0 312 203" fill="none" xmlns="http://www.w3.org/2000/svg">
<path d="M19.6 89.7V107H17.325V94.1L11.575 107H9.975L4.2 94.075V107H1.925V89.7H4.375L10.775 104L17.175 89.7H19.6ZM36.3132 103.9H30.2332L29.1132 107H27.1932L32.2332 93.14H34.3332L39.3532 107H37.4332L36.3132 103.9ZM35.7932 102.42L33.2732 95.38L30.7532 102.42H35.7932ZM49.8898 93.06C51.4098 93.06 52.7231 93.3467 53.8298 93.92C54.9498 94.48 55.8031 95.2867 56.3898 96.34C56.9898 97.3933 57.2898 98.6333 57.2898 100.06C57.2898 101.487 56.9898 102.727 56.3898 103.78C55.8031 104.82 54.9498 105.62 53.8298 106.18C52.7231 106.727 51.4098 107 49.8898 107H45.5498V93.06H49.8898ZM49.8898 105.5C51.6898 105.5 53.0631 105.027 54.0098 104.08C54.9564 103.12 55.4298 101.78 55.4298 100.06C55.4298 98.3267 54.9498 96.9733 53.9898 96C53.0431 95.0267 51.6764 94.54 49.8898 94.54H47.3698V105.5H49.8898ZM71.0304 107L67.7104 101.3H65.5104V107H63.6904V93.06H68.1904C69.2437 93.06 70.1304 93.24 70.8504 93.6C71.5837 93.96 72.1304 94.4467 72.4904 95.06C72.8504 95.6733 73.0304 96.3733 73.0304 97.16C73.0304 98.12 72.7504 98.9667 72.1904 99.7C71.6437 100.433 70.8171 100.92 69.7104 101.16L73.2104 107H71.0304ZM65.5104 99.84H68.1904C69.1771 99.84 69.9171 99.6 70.4104 99.12C70.9037 98.6267 71.1504 97.9733 71.1504 97.16C71.1504 96.3333 70.9037 95.6933 70.4104 95.24C69.9304 94.7867 69.1904 94.56 68.1904 94.56H65.5104V99.84ZM81.6784 93.06V107H79.8584V93.06H81.6784ZM99.7402 107H97.9202L90.6002 95.9V107H88.7802V93.04H90.6002L97.9202 104.12V93.04H99.7402V107ZM117.583 93.06V107H115.763V100.68H108.663V107H106.843V93.06H108.663V99.18H115.763V93.06H117.583ZM132.93 103.9H126.85L125.73 107H123.81L128.85 93.14H130.95L135.97 107H134.05L132.93 103.9ZM132.41 102.42L129.89 95.38L127.37 102.42H132.41ZM161.438 93.06C162.958 93.06 164.272 93.3467 165.378 93.92C166.498 94.48 167.352 95.2867 167.938 96.34C168.538 97.3933 168.838 98.6333 168.838 100.06C168.838 101.487 168.538 102.727 167.938 103.78C167.352 104.82 166.498 105.62 165.378 106.18C164.272 106.727 162.958 107 161.438 107H157.098V93.06H161.438ZM161.438 105.5C163.238 105.5 164.612 105.027 165.558 104.08C166.505 103.12 166.978 101.78 166.978 100.06C166.978 98.3267 166.498 96.9733 165.538 96C164.592 95.0267 163.225 94.54 161.438 94.54H158.918V105.5H161.438ZM183.479 103.9H177.399L176.279 107H174.359L179.399 93.14H181.499L186.519 107H184.599L183.479 103.9ZM182.959 102.42L180.439 95.38L177.919 102.42H182.959ZM197.135 107.14C196.215 107.14 195.389 106.98 194.655 106.66C193.935 106.327 193.369 105.873 192.955 105.3C192.542 104.713 192.329 104.04 192.315 103.28H194.255C194.322 103.933 194.589 104.487 195.055 104.94C195.535 105.38 196.229 105.6 197.135 105.6C198.002 105.6 198.682 105.387 199.175 104.96C199.682 104.52 199.935 103.96 199.935 103.28C199.935 102.747 199.789 102.313 199.495 101.98C199.202 101.647 198.835 101.393 198.395 101.22C197.955 101.047 197.362 100.86 196.615 100.66C195.695 100.42 194.955 100.18 194.395 99.94C193.849 99.7 193.375 99.3267 192.975 98.82C192.589 98.3 192.395 97.6067 192.395 96.74C192.395 95.98 192.589 95.3067 192.975 94.72C193.362 94.1333 193.902 93.68 194.595 93.36C195.302 93.04 196.109 92.88 197.015 92.88C198.322 92.88 199.389 93.2067 200.215 93.86C201.055 94.5133 201.529 95.38 201.635 96.46H199.635C199.569 95.9267 199.289 95.46 198.795 95.06C198.302 94.6467 197.649 94.44 196.835 94.44C196.075 94.44 195.455 94.64 194.975 95.04C194.495 95.4267 194.255 95.9733 194.255 96.68C194.255 97.1867 194.395 97.6 194.675 97.92C194.969 98.24 195.322 98.4867 195.735 98.66C196.162 98.82 196.755 99.0067 197.515 99.22C198.435 99.4733 199.175 99.7267 199.735 99.98C200.295 100.22 200.775 100.6 201.175 101.12C201.575 101.627 201.775 102.32 201.775 103.2C201.775 103.88 201.595 104.52 201.235 105.12C200.875 105.72 200.342 106.207 199.635 106.58C198.929 106.953 198.095 107.14 197.135 107.14ZM226.045 105.15H232.145V107H223.77V89.575H226.045V105.15ZM245.496 107.14C244.203 107.14 243.023 106.84 241.956 106.24C240.889 105.627 240.043 104.78 239.416 103.7C238.803 102.607 238.496 101.38 238.496 100.02C238.496 98.66 238.803 97.44 239.416 96.36C240.043 95.2667 240.889 94.42 241.956 93.82C243.023 93.2067 244.203 92.9 245.496 92.9C246.803 92.9 247.989 93.2067 249.056 93.82C250.123 94.42 250.963 95.26 251.576 96.34C252.189 97.42 252.496 98.6467 252.496 100.02C252.496 101.393 252.189 102.62 251.576 103.7C250.963 104.78 250.123 105.627 249.056 106.24C247.989 106.84 246.803 107.14 245.496 107.14ZM245.496 105.56C246.469 105.56 247.343 105.333 248.116 104.88C248.903 104.427 249.516 103.78 249.956 102.94C250.409 102.1 250.636 101.127 250.636 100.02C250.636 98.9 250.409 97.9267 249.956 97.1C249.516 96.26 248.909 95.6133 248.136 95.16C247.363 94.7067 246.483 94.48 245.496 94.48C244.509 94.48 243.629 94.7067 242.856 95.16C242.083 95.6133 241.469 96.26 241.016 97.1C240.576 97.9267 240.356 98.9 240.356 100.02C240.356 101.127 240.576 102.1 241.016 102.94C241.469 103.78 242.083 104.427 242.856 104.88C243.643 105.333 244.523 105.56 245.496 105.56ZM260.719 93.06V107H258.899V93.06H260.719ZM275.16 107L271.84 101.3H269.64V107H267.82V93.06H272.32C273.374 93.06 274.26 93.24 274.98 93.6C275.714 93.96 276.26 94.4467 276.62 95.06C276.98 95.6733 277.16 96.3733 277.16 97.16C277.16 98.12 276.88 98.9667 276.32 99.7C275.774 100.433 274.947 100.92 273.84 101.16L277.34 107H275.16ZM269.64 99.84H272.32C273.307 99.84 274.047 99.6 274.54 99.12C275.034 98.6267 275.28 97.9733 275.28 97.16C275.28 96.3333 275.034 95.6933 274.54 95.24C274.06 94.7867 273.32 94.56 272.32 94.56H269.64V99.84ZM292.228 103.9H286.148L285.028 107H283.108L288.148 93.14H290.248L295.268 107H293.348L292.228 103.9ZM291.708 102.42L289.188 95.38L286.668 102.42H291.708ZM305.885 107.14C304.965 107.14 304.138 106.98 303.405 106.66C302.685 106.327 302.118 105.873 301.705 105.3C301.292 104.713 301.078 104.04 301.065 103.28H303.005C303.072 103.933 303.338 104.487 303.805 104.94C304.285 105.38 304.978 105.6 305.885 105.6C306.752 105.6 307.432 105.387 307.925 104.96C308.432 104.52 308.685 103.96 308.685 103.28C308.685 102.747 308.538 102.313 308.245 101.98C307.952 101.647 307.585 101.393 307.145 101.22C306.705 101.047 306.112 100.86 305.365 100.66C304.445 100.42 303.705 100.18 303.145 99.94C302.598 99.7 302.125 99.3267 301.725 98.82C301.338 98.3 301.145 97.6067 301.145 96.74C301.145 95.98 301.338 95.3067 301.725 94.72C302.112 94.1333 302.652 93.68 303.345 93.36C304.052 93.04 304.858 92.88 305.765 92.88C307.072 92.88 308.138 93.2067 308.965 93.86C309.805 94.5133 310.278 95.38 310.385 96.46H308.385C308.318 95.9267 308.038 95.46 307.545 95.06C307.052 94.6467 306.398 94.44 305.585 94.44C304.825 94.44 304.205 94.64 303.725 95.04C303.245 95.4267 303.005 95.9733 303.005 96.68C303.005 97.1867 303.145 97.6 303.425 97.92C303.718 98.24 304.072 98.4867 304.485 98.66C304.912 98.82 305.505 99.0067 306.265 99.22C307.185 99.4733 307.925 99.7267 308.485 99.98C309.045 100.22 309.525 100.6 309.925 101.12C310.325 101.627 310.525 102.32 310.525 103.2C310.525 103.88 310.345 104.52 309.985 105.12C309.625 105.72 309.092 106.207 308.385 106.58C307.678 106.953 306.845 107.14 305.885 107.14Z" fill="#560A20"/>
<path d="M14.54 140.72V146.58H20.14V147.34H14.54V153.24H20.74V154H13.64V139.96H20.74V140.72H14.54ZM32.3842 154.112C31.6589 154.112 31.0242 153.984 30.4802 153.728C29.9362 153.472 29.5096 153.125 29.2002 152.688C28.9016 152.251 28.7309 151.765 28.6882 151.232H29.4402C29.5256 151.819 29.7976 152.341 30.2562 152.8C30.7256 153.259 31.4349 153.488 32.3842 153.488C32.9389 153.488 33.4189 153.387 33.8242 153.184C34.2402 152.981 34.5602 152.704 34.7842 152.352C35.0082 152 35.1202 151.611 35.1202 151.184C35.1202 150.64 34.9869 150.208 34.7202 149.888C34.4642 149.568 34.1389 149.328 33.7442 149.168C33.3602 149.008 32.8376 148.837 32.1762 148.656C31.4509 148.464 30.8642 148.272 30.4162 148.08C29.9789 147.888 29.6056 147.595 29.2962 147.2C28.9976 146.795 28.8482 146.245 28.8482 145.552C28.8482 145.019 28.9869 144.533 29.2642 144.096C29.5522 143.648 29.9576 143.296 30.4802 143.04C31.0029 142.784 31.6056 142.656 32.2882 142.656C33.2802 142.656 34.0802 142.901 34.6882 143.392C35.2962 143.883 35.6589 144.485 35.7762 145.2H35.0082C34.9442 144.912 34.8002 144.619 34.5762 144.32C34.3629 144.021 34.0536 143.776 33.6482 143.584C33.2536 143.381 32.7789 143.28 32.2242 143.28C31.4776 143.28 30.8482 143.488 30.3362 143.904C29.8242 144.309 29.5682 144.853 29.5682 145.536C29.5682 146.08 29.7016 146.517 29.9682 146.848C30.2349 147.168 30.5602 147.413 30.9442 147.584C31.3389 147.744 31.8669 147.909 32.5282 148.08C33.2642 148.283 33.8456 148.48 34.2722 148.672C34.7096 148.853 35.0776 149.147 35.3762 149.552C35.6856 149.947 35.8402 150.485 35.8402 151.168C35.8402 151.669 35.7069 152.144 35.4402 152.592C35.1736 153.04 34.7789 153.408 34.2562 153.696C33.7442 153.973 33.1202 154.112 32.3842 154.112ZM49.5956 145.936C49.5956 146.928 49.2863 147.701 48.6676 148.256C48.0489 148.8 47.1316 149.072 45.9156 149.072H43.5156V154H42.7956V142.768H45.9156C47.1529 142.768 48.0756 143.056 48.6836 143.632C49.2916 144.197 49.5956 144.965 49.5956 145.936ZM45.9156 148.432C47.8889 148.432 48.8756 147.6 48.8756 145.936C48.8756 145.115 48.6409 144.491 48.1716 144.064C47.7023 143.627 46.9503 143.408 45.9156 143.408H43.5156V148.432H45.9156ZM57.05 143.376V148.064H61.53V148.672H57.05V153.392H62.01V154H56.33V142.768H62.01V143.376H57.05ZM68.5413 148.4C68.5413 147.291 68.7707 146.304 69.2293 145.44C69.6987 144.565 70.3387 143.883 71.1493 143.392C71.9707 142.901 72.888 142.656 73.9013 142.656C75.1813 142.656 76.2587 142.955 77.1333 143.552C78.008 144.149 78.648 144.987 79.0533 146.064H78.2213C77.9013 145.211 77.368 144.539 76.6213 144.048C75.8853 143.547 74.9787 143.296 73.9013 143.296C73.0373 143.296 72.2533 143.504 71.5493 143.92C70.8453 144.325 70.2907 144.917 69.8853 145.696C69.48 146.464 69.2773 147.365 69.2773 148.4C69.2773 149.424 69.48 150.32 69.8853 151.088C70.2907 151.845 70.8453 152.432 71.5493 152.848C72.2533 153.264 73.0373 153.472 73.9013 153.472C74.9787 153.472 75.8853 153.227 76.6213 152.736C77.368 152.235 77.9013 151.557 78.2213 150.704H79.0533C78.648 151.781 78.008 152.619 77.1333 153.216C76.2587 153.813 75.1813 154.112 73.9013 154.112C72.888 154.112 71.9707 153.872 71.1493 153.392C70.3387 152.901 69.6987 152.224 69.2293 151.36C68.7707 150.485 68.5413 149.499 68.5413 148.4ZM86.8218 142.768V154H86.1018V142.768H86.8218ZM100.629 151.12H95.3012L94.2292 154H93.4452L97.5732 143.024H98.3732L102.485 154H101.701L100.629 151.12ZM100.405 150.512L97.9732 143.968L95.5252 150.512H100.405ZM109.812 153.392H113.988V154H109.092V142.768H109.812V153.392ZM121.144 142.768V154H120.424V142.768H121.144ZM131.831 154.112C131.106 154.112 130.471 153.984 129.927 153.728C129.383 153.472 128.956 153.125 128.647 152.688C128.348 152.251 128.178 151.765 128.135 151.232H128.887C128.972 151.819 129.244 152.341 129.703 152.8C130.172 153.259 130.882 153.488 131.831 153.488C132.386 153.488 132.866 153.387 133.271 153.184C133.687 152.981 134.007 152.704 134.231 152.352C134.455 152 134.567 151.611 134.567 151.184C134.567 150.64 134.434 150.208 134.167 149.888C133.911 149.568 133.586 149.328 133.191 149.168C132.807 149.008 132.284 148.837 131.623 148.656C130.898 148.464 130.311 148.272 129.863 148.08C129.426 147.888 129.052 147.595 128.743 147.2C128.444 146.795 128.295 146.245 128.295 145.552C128.295 145.019 128.434 144.533 128.711 144.096C128.999 143.648 129.404 143.296 129.927 143.04C130.45 142.784 131.052 142.656 131.735 142.656C132.727 142.656 133.527 142.901 134.135 143.392C134.743 143.883 135.106 144.485 135.223 145.2H134.455C134.391 144.912 134.247 144.619 134.023 144.32C133.81 144.021 133.5 143.776 133.095 143.584C132.7 143.381 132.226 143.28 131.671 143.28C130.924 143.28 130.295 143.488 129.783 143.904C129.271 144.309 129.015 144.853 129.015 145.536C129.015 146.08 129.148 146.517 129.415 146.848C129.682 147.168 130.007 147.413 130.391 147.584C130.786 147.744 131.314 147.909 131.975 148.08C132.711 148.283 133.292 148.48 133.719 148.672C134.156 148.853 134.524 149.147 134.823 149.552C135.132 149.947 135.287 150.485 135.287 151.168C135.287 151.669 135.154 152.144 134.887 152.592C134.62 153.04 134.226 153.408 133.703 153.696C133.191 153.973 132.567 154.112 131.831 154.112ZM148.45 142.768V143.376H145.25V154H144.53V143.376H141.33V142.768H148.45ZM161.332 151.12H156.004L154.932 154H154.148L158.276 143.024H159.076L163.188 154H162.404L161.332 151.12ZM161.108 150.512L158.676 143.968L156.228 150.512H161.108ZM182.16 143.376V148.064H186.64V148.672H182.16V153.392H187.12V154H181.44V142.768H187.12V143.376H182.16ZM204.58 143.008V154H203.86V144.512L199.636 154H199.06L194.82 144.512V154H194.1V143.008H194.868L199.348 153.056L203.828 143.008H204.58ZM224.897 153.24H230.117V154H223.997V139.96H224.897V153.24ZM242.841 154.128C241.806 154.128 240.873 153.888 240.041 153.408C239.209 152.917 238.558 152.235 238.089 151.36C237.62 150.485 237.385 149.499 237.385 148.4C237.385 147.291 237.62 146.304 238.089 145.44C238.558 144.565 239.209 143.888 240.041 143.408C240.873 142.917 241.806 142.672 242.841 142.672C243.876 142.672 244.809 142.917 245.641 143.408C246.473 143.888 247.124 144.565 247.593 145.44C248.062 146.304 248.297 147.291 248.297 148.4C248.297 149.499 248.062 150.485 247.593 151.36C247.124 152.235 246.473 152.917 245.641 153.408C244.809 153.888 243.876 154.128 242.841 154.128ZM242.841 153.488C243.726 153.488 244.526 153.28 245.241 152.864C245.956 152.448 246.516 151.856 246.921 151.088C247.337 150.32 247.545 149.424 247.545 148.4C247.545 147.365 247.337 146.464 246.921 145.696C246.516 144.928 245.956 144.336 245.241 143.92C244.526 143.504 243.726 143.296 242.841 143.296C241.956 143.296 241.156 143.504 240.441 143.92C239.726 144.336 239.161 144.928 238.745 145.696C238.329 146.464 238.121 147.365 238.121 148.4C238.121 149.424 238.329 150.32 238.745 151.088C239.161 151.856 239.726 152.448 240.441 152.864C241.156 153.28 241.956 153.488 242.841 153.488ZM255.994 142.768V154H255.274V142.768H255.994ZM269.497 154L266.617 149.216H266.553H264.153V154H263.433V142.768H266.521C267.769 142.768 268.702 143.061 269.321 143.648C269.95 144.235 270.265 145.013 270.265 145.984C270.265 146.848 270.02 147.563 269.529 148.128C269.049 148.683 268.345 149.024 267.417 149.152L270.361 154H269.497ZM264.153 148.608H266.553C267.545 148.608 268.286 148.368 268.777 147.888C269.268 147.408 269.513 146.773 269.513 145.984C269.513 144.267 268.516 143.408 266.521 143.408H264.153V148.608ZM283.57 151.12H278.242L277.17 154H276.386L280.514 143.024H281.314L285.426 154H284.642L283.57 151.12ZM283.346 150.512L280.914 143.968L278.466 150.512H283.346ZM295.281 154.112C294.556 154.112 293.921 153.984 293.377 153.728C292.833 153.472 292.406 153.125 292.097 152.688C291.798 152.251 291.628 151.765 291.585 151.232H292.337C292.422 151.819 292.694 152.341 293.153 152.8C293.622 153.259 294.332 153.488 295.281 153.488C295.836 153.488 296.316 153.387 296.721 153.184C297.137 152.981 297.457 152.704 297.681 152.352C297.905 152 298.017 151.611 298.017 151.184C298.017 150.64 297.884 150.208 297.617 149.888C297.361 149.568 297.036 149.328 296.641 149.168C296.257 149.008 295.734 148.837 295.073 148.656C294.348 148.464 293.761 148.272 293.313 148.08C292.876 147.888 292.502 147.595 292.193 147.2C291.894 146.795 291.745 146.245 291.745 145.552C291.745 145.019 291.884 144.533 292.161 144.096C292.449 143.648 292.854 143.296 293.377 143.04C293.9 142.784 294.502 142.656 295.185 142.656C296.177 142.656 296.977 142.901 297.585 143.392C298.193 143.883 298.556 144.485 298.673 145.2H297.905C297.841 144.912 297.697 144.619 297.473 144.32C297.26 144.021 296.95 143.776 296.545 143.584C296.15 143.381 295.676 143.28 295.121 143.28C294.374 143.28 293.745 143.488 293.233 143.904C292.721 144.309 292.465 144.853 292.465 145.536C292.465 146.08 292.598 146.517 292.865 146.848C293.132 147.168 293.457 147.413 293.841 147.584C294.236 147.744 294.764 147.909 295.425 148.08C296.161 148.283 296.742 148.48 297.169 148.672C297.606 148.853 297.974 149.147 298.273 149.552C298.582 149.947 298.737 150.485 298.737 151.168C298.737 151.669 298.604 152.144 298.337 152.592C298.07 153.04 297.676 153.408 297.153 153.696C296.641 153.973 296.017 154.112 295.281 154.112Z" fill="#560A20"/>
<ellipse cx="156" cy="119.5" rx="115" ry="1.5" fill="#560A20"/>
<path d="M81.075 172.75V190H79.325V176.225L73.175 190H71.9L65.75 176.275V190H64V172.75H65.85L72.525 187.7L79.2 172.75H81.075ZM92.2949 176.02V190H90.8949V176.02H92.2949ZM101.865 188.86H106.885V190H100.465V176.02H101.865V188.86ZM115.283 188.86H120.303V190H113.883V176.02H115.283V188.86ZM135.401 186.68H129.041L127.821 190H126.341L131.441 176.2H133.021L138.101 190H136.621L135.401 186.68ZM134.981 185.52L132.221 177.96L129.461 185.52H134.981ZM170.704 180.975C171.688 181.158 172.521 181.658 173.204 182.475C173.888 183.292 174.229 184.242 174.229 185.325C174.229 186.208 174.004 187.008 173.554 187.725C173.121 188.425 172.479 188.983 171.629 189.4C170.779 189.8 169.763 190 168.579 190H162.529V172.525H168.404C170.171 172.525 171.513 172.933 172.429 173.75C173.363 174.567 173.829 175.625 173.829 176.925C173.829 178.008 173.538 178.892 172.954 179.575C172.371 180.242 171.621 180.708 170.704 180.975ZM164.279 180.25H168.354C169.538 180.25 170.446 179.975 171.079 179.425C171.729 178.858 172.054 178.083 172.054 177.1C172.054 176.133 171.729 175.375 171.079 174.825C170.446 174.275 169.513 174 168.279 174H164.279V180.25ZM168.454 188.525C169.721 188.525 170.704 188.225 171.404 187.625C172.121 187.025 172.479 186.2 172.479 185.15C172.479 184.1 172.104 183.267 171.354 182.65C170.621 182.017 169.629 181.7 168.379 181.7H164.279V188.525H168.454ZM184.696 188.86H189.716V190H183.296V176.02H184.696V188.86ZM202.994 190.14C201.701 190.14 200.528 189.84 199.474 189.24C198.421 188.627 197.588 187.78 196.974 186.7C196.374 185.607 196.074 184.373 196.074 183C196.074 181.627 196.374 180.4 196.974 179.32C197.588 178.227 198.421 177.38 199.474 176.78C200.528 176.167 201.701 175.86 202.994 175.86C204.301 175.86 205.481 176.167 206.534 176.78C207.588 177.38 208.414 178.227 209.014 179.32C209.614 180.4 209.914 181.627 209.914 183C209.914 184.373 209.614 185.607 209.014 186.7C208.414 187.78 207.588 188.627 206.534 189.24C205.481 189.84 204.301 190.14 202.994 190.14ZM202.994 188.92C204.034 188.92 204.968 188.68 205.794 188.2C206.621 187.72 207.274 187.033 207.754 186.14C208.234 185.233 208.474 184.187 208.474 183C208.474 181.813 208.234 180.773 207.754 179.88C207.274 178.987 206.621 178.3 205.794 177.82C204.968 177.34 204.034 177.1 202.994 177.1C201.954 177.1 201.021 177.34 200.194 177.82C199.368 178.3 198.714 178.987 198.234 179.88C197.754 180.773 197.514 181.813 197.514 183C197.514 184.187 197.754 185.233 198.234 186.14C198.714 187.033 199.368 187.72 200.194 188.2C201.021 188.68 201.954 188.92 202.994 188.92ZM228.016 190H226.616L218.876 178.24V190H217.476V176.02H218.876L226.616 187.76V176.02H228.016V190ZM240.327 176.02C241.874 176.02 243.2 176.3 244.307 176.86C245.414 177.42 246.26 178.227 246.847 179.28C247.434 180.333 247.727 181.587 247.727 183.04C247.727 184.48 247.434 185.727 246.847 186.78C246.26 187.82 245.414 188.62 244.307 189.18C243.2 189.727 241.874 190 240.327 190H236.187V176.02H240.327ZM240.327 188.84C242.274 188.84 243.754 188.333 244.767 187.32C245.794 186.293 246.307 184.867 246.307 183.04C246.307 181.2 245.794 179.767 244.767 178.74C243.754 177.7 242.274 177.18 240.327 177.18H237.587V188.84H240.327Z" fill="#560A20"/>
<path d="M47 40L50.3677 50.3647H61.2658L52.4491 56.7705L55.8168 67.1353L47 60.7295L38.1832 67.1353L41.5509 56.7705L32.7342 50.3647H43.6323L47 40Z" fill="#560A20"/>
<path d="M91.5 20L97.1129 37.2746H115.276L100.582 47.9508L106.195 65.2254L91.5 54.5491L76.8054 65.2254L82.4182 47.9508L67.7236 37.2746H85.8871L91.5 20Z" fill="#560A20"/>
<path d="M156 0L163.858 24.1844L189.287 24.1844L168.714 39.1312L176.572 63.3156L156 48.3688L135.428 63.3156L143.286 39.1312L122.713 24.1844L148.142 24.1844L156 0Z" fill="#560A20"/>
<path d="M220.5 20L226.113 37.2746H244.276L229.582 47.9508L235.195 65.2254L220.5 54.5491L205.805 65.2254L211.418 47.9508L196.724 37.2746H214.887L220.5 20Z" fill="#560A20"/>
<path d="M265 40L268.368 50.3647H279.266L270.449 56.7705L273.817 67.1353L265 60.7295L256.183 67.1353L259.551 56.7705L250.734 50.3647H261.632L265 40Z" fill="#560A20"/>
</svg>
