<svg width="166" height="25" viewBox="0 0 166 25" fill="none" xmlns="http://www.w3.org/2000/svg">
<path d="M10 0L12.2451 6.90983H19.5106L13.6327 11.1803L15.8779 18.0902L10 13.8197L4.12215 18.0902L6.36729 11.1803L0.489435 6.90983H7.75486L10 0Z" fill="#DE7778"/>
<path d="M46.5 0L48.7451 6.90983H56.0106L50.1327 11.1803L52.3779 18.0902L46.5 13.8197L40.6221 18.0902L42.8673 11.1803L36.9894 6.90983H44.2549L46.5 0Z" fill="#DE7778"/>
<path d="M83 0L85.2451 6.90983H92.5106L86.6327 11.1803L88.8779 18.0902L83 13.8197L77.1221 18.0902L79.3673 11.1803L73.4894 6.90983H80.7549L83 0Z" fill="#DE7778"/>
<path d="M119.5 0L121.745 6.90983H129.011L123.133 11.1803L125.378 18.0902L119.5 13.8197L113.622 18.0902L115.867 11.1803L109.989 6.90983H117.255L119.5 0Z" fill="#DE7778"/>
<path d="M156 0L158.245 6.90983H165.511L159.633 11.1803L161.878 18.0902L156 13.8197L150.122 18.0902L152.367 11.1803L146.489 6.90983H153.755L156 0Z" fill="#DE7778"/>
</svg>
