<svg width="40" height="352" viewBox="0 0 40 352" fill="none" xmlns="http://www.w3.org/2000/svg">
<path d="M20 0L24.4903 13.8197H39.0211L27.2654 22.3607L31.7557 36.1803L20 27.6393L8.2443 36.1803L12.7346 22.3607L0.97887 13.8197H15.5097L20 0Z" fill="#DE7778"/>
<path d="M20 78L24.4903 91.8197H39.0211L27.2654 100.361L31.7557 114.18L20 105.639L8.2443 114.18L12.7346 100.361L0.97887 91.8197H15.5097L20 78Z" fill="#DE7778"/>
<path d="M20 156L24.4903 169.82H39.0211L27.2654 178.361L31.7557 192.18L20 183.639L8.2443 192.18L12.7346 178.361L0.97887 169.82H15.5097L20 156Z" fill="#DE7778"/>
<path d="M20 234L24.4903 247.82H39.0211L27.2654 256.361L31.7557 270.18L20 261.639L8.2443 270.18L12.7346 256.361L0.97887 247.82H15.5097L20 234Z" fill="#DE7778"/>
<path d="M20 312L24.4903 325.82H39.0211L27.2654 334.361L31.7557 348.18L20 339.639L8.2443 348.18L12.7346 334.361L0.97887 325.82H15.5097L20 312Z" fill="#DE7778"/>
</svg>
