<svg width="35" height="35" viewBox="0 0 35 35" fill="none" xmlns="http://www.w3.org/2000/svg">
<path d="M28.2256 6.6377C25.3613 3.7666 21.5469 2.1875 17.4932 2.1875C9.12598 2.1875 2.31738 8.99609 2.31738 17.3633C2.31738 20.0361 3.01465 22.6475 4.34082 24.9512L2.1875 32.8125L10.2334 30.7002C12.4482 31.9102 14.9434 32.5459 17.4863 32.5459H17.4932C25.8535 32.5459 32.8125 25.7373 32.8125 17.3701C32.8125 13.3164 31.0898 9.50879 28.2256 6.6377ZM17.4932 29.9893C15.2236 29.9893 13.002 29.3809 11.0674 28.2324L10.6094 27.959L5.83789 29.21L7.10938 24.5547L6.80859 24.0762C5.54395 22.0664 4.88086 19.749 4.88086 17.3633C4.88086 10.4111 10.541 4.75098 17.5 4.75098C20.8701 4.75098 24.0352 6.06348 26.4141 8.44922C28.793 10.835 30.2559 14 30.249 17.3701C30.249 24.3291 24.4453 29.9893 17.4932 29.9893ZM24.4111 20.542C24.0352 20.3506 22.1689 19.4346 21.8203 19.3115C21.4717 19.1816 21.2188 19.1201 20.9658 19.5029C20.7129 19.8857 19.9883 20.7334 19.7627 20.9932C19.5439 21.2461 19.3184 21.2803 18.9424 21.0889C16.7139 19.9746 15.251 19.0996 13.7812 16.5771C13.3916 15.9072 14.1709 15.9551 14.8955 14.5059C15.0186 14.2529 14.957 14.0342 14.8613 13.8428C14.7656 13.6514 14.0068 11.7852 13.6924 11.0264C13.3848 10.2881 13.0703 10.3906 12.8379 10.377C12.6191 10.3633 12.3662 10.3633 12.1133 10.3633C11.8604 10.3633 11.4502 10.459 11.1016 10.835C10.7529 11.2178 9.77539 12.1338 9.77539 14C9.77539 15.8662 11.1357 17.6709 11.3203 17.9238C11.5117 18.1768 13.9932 22.0049 17.8008 23.6523C20.207 24.6914 21.1504 24.7803 22.3535 24.6025C23.085 24.4932 24.5957 23.6865 24.9102 22.7979C25.2246 21.9092 25.2246 21.1504 25.1289 20.9932C25.04 20.8223 24.7871 20.7266 24.4111 20.542Z" fill="#232222"/>
</svg>
